<svg aria-hidden="true" style="width:0;height:0;position:absolute;overflow:hidden" xmlns="http://www.w3.org/2000/svg"><defs><symbol id="icon-close" viewBox="0 0 32 32"><path d="m17.253 16 7.369-7.369a.886.886 0 0 0-.047-1.207.89.89 0 0 0-1.206-.047L16 14.746 8.631 7.368A.892.892 0 0 0 7.369 8.63l7.378 7.369-7.378 7.369a.891.891 0 0 0-.05 1.304.89.89 0 0 0 1.304-.051l7.378-7.369 7.369 7.369a.885.885 0 0 0 1.206-.047.89.89 0 0 0 .047-1.206l-7.369-7.369z"/></symbol><symbol id="icon-bracket" viewBox="0 0 32 32"><path stroke-width="5.333" stroke-linecap="round" stroke-linejoin="round" d="M10.667 5.333 23.867 16l-13.2 10.667"/></symbol><symbol id="icon-arrow" viewBox="0 0 82 32"><path d="M81.414 17.414a2 2 0 0 0 0-2.828L68.686 1.858a2 2 0 1 0-2.828 2.828L77.172 16 65.858 27.314a2 2 0 1 0 2.828 2.828l12.728-12.728zM0 18h80v-4H0v4z"/></symbol><symbol id="icon-pointer" viewBox="0 0 84 32"><path d="M82.643 17.191a2 2 0 0 0 0-2.828L69.915 1.635a2 2 0 1 0-2.828 2.828l11.314 11.314-11.314 11.314a2 2 0 0 0 2.828 2.829l12.728-12.728zM.76 17.777h80.469v-4H.76v4z"/></symbol><symbol id="icon-github" viewBox="0 0 31 32"><path fill="#f8d24e" style="fill:var(--color1,#f8d24e)" d="M31.03 16.43c0 8.571-6.946 15.519-15.515 15.519S0 25.001 0 16.43 6.946.911 15.515.911 31.03 7.859 31.03 16.43z"/><path d="M15.515 7.301c-5.013 0-9.127 4.115-9.127 9.129 0 4.279 3.002 8.165 6.988 9.129v-3.02a2.22 2.22 0 0 1-1.16-.03c-.539-.159-.978-.519-1.303-1.067-.207-.35-.575-.729-.958-.701l-.094-1.066c.829-.071 1.546.505 1.972 1.221.189.318.407.505.686.587.27.079.56.041.898-.078.085-.677.395-.93.629-1.286-2.377-.355-3.325-1.616-3.701-2.612-.498-1.322-.231-2.974.65-4.017.017-.02.048-.074.036-.111-.404-1.221.088-2.23.106-2.338.466.138.542-.139 2.025.763l.256.154c.107.064.073.027.181.019a7.735 7.735 0 0 1 1.915-.269 7.768 7.768 0 0 1 1.942.276l.083.008c-.007-.001.023-.005.073-.035 1.853-1.123 1.786-.756 2.283-.917.018.107.504 1.133.104 2.339-.054.166 1.606 1.687.686 4.128-.376.996-1.323 2.257-3.7 2.612.305.465.671.712.669 1.67v3.77c3.986-.963 6.988-4.85 6.988-9.129 0-5.014-4.114-9.129-9.126-9.129z"/></symbol><symbol id="icon-telegram" viewBox="0 0 32 32"><path fill="#f8d24e" style="fill:var(--color1,#f8d24e)" d="M31.259 16.43c0 8.571-6.946 15.519-15.515 15.519S.229 25.001.229 16.43 7.175.911 15.744.911 31.259 7.859 31.259 16.43z"/><path d="m12.705 18.734-.308 4.044c.441 0 .631-.177.86-.389l2.066-1.843 4.281 2.926c.785.409 1.338.193 1.55-.674l2.811-12.292c.249-1.083-.42-1.507-1.185-1.241L6.264 15.168c-1.127.408-1.11.995-.192 1.261l4.223 1.226 9.808-5.729c.462-.285.881-.127.536.158l-7.934 6.65z"/></symbol><symbol id="icon-facebook" viewBox="0 0 31 32"><path fill="#f8d24e" style="fill:var(--color1,#f8d24e)" d="M15.515 31.948c8.569 0 15.515-6.948 15.515-15.519S24.084.91 15.515.91 0 7.858 0 16.429s6.946 15.519 15.515 15.519z"/><path d="M19.826 16.412h-2.531v9.329H13.46v-9.329h-1.824v-3.279h1.824v-2.122c0-1.517.716-3.893 3.869-3.893l2.841.012v3.183h-2.061c-.338 0-.813.17-.813.894v1.93h2.866l-.335 3.276z"/></symbol><symbol id="icon-menu" viewBox="0 0 32 32"><path stroke-width="2" stroke-linecap="round" d="M6 10h20M6 16h20M6 22h20"/></symbol><symbol id="icon-ep_close" viewBox="0 0 32 32"><path d="M23.884 6.706 16 14.59 8.116 6.706a.995.995 0 0 0-1.38.031 1 1 0 0 0-.031 1.38l7.88 7.884-7.882 7.882a1.002 1.002 0 0 0-.018 1.427.998.998 0 0 0 1.427-.015l7.886-7.882 7.884 7.884a1 1 0 0 0 1.38-.03 1 1 0 0 0 .03-1.38l-7.884-7.884 7.884-7.886a1.002 1.002 0 0 0 .018-1.427.998.998 0 0 0-1.427.015v.002z"/></symbol><symbol id="icon-scroll-to-top" viewBox="-1 -1 35 35"><path d="M14.422.296C9.027.884 4.424 4.03 1.962 8.813 1.175 10.343.67 11.93.374 13.79c-.092.568-.102.859-.102 2.209 0 1.685.044 2.137.335 3.448 1.136 5.074 4.744 9.304 9.566 11.207 1.161.461 2.268.758 3.618.971.568.092.859.102 2.209.102 1.685 0 2.137-.044 3.448-.335 5.074-1.136 9.304-4.744 11.207-9.566.461-1.161.758-2.268.971-3.618.092-.568.102-.859.102-2.209 0-1.685-.044-2.137-.335-3.448a15.821 15.821 0 0 0-5.934-9.173A15.821 15.821 0 0 0 19.447.605C18.252.338 17.704.28 16.218.265c-.762-.01-1.568.005-1.797.029zm3.282 1.234a14.395 14.395 0 0 1 8.59 4.176c2.394 2.389 3.792 5.312 4.205 8.789.073.626.073 2.384 0 3.011-.413 3.477-1.811 6.4-4.205 8.789-1.831 1.835-4.098 3.147-6.531 3.783-1.326.35-2.37.481-3.763.481s-2.438-.131-3.763-.481c-3.355-.879-6.385-3.049-8.342-5.982-1.345-2.01-2.093-4.079-2.394-6.589-.073-.626-.073-2.384 0-3.011.413-3.477 1.811-6.4 4.205-8.789 2.583-2.588 5.88-4.05 9.615-4.268.5-.029 1.772.019 2.384.092z"/><path d="m11.751 15.369-4.249 4.249.427.422.422.427 7.648-7.648 7.648 7.648.422-.427.427-.422-8.498-8.498-4.249 4.249z"/></symbol><symbol id="icon-frame-57" viewBox="0 0 82 32"><path fill="#fcfcfc" style="fill:var(--color1,#fcfcfc)" d="M81.414 17.414a2 2 0 0 0 0-2.828L68.686 1.858a2 2 0 1 0-2.828 2.828L77.172 16 65.858 27.314a2 2 0 1 0 2.828 2.828l12.728-12.728zM0 18h80v-4H0v4z"/></symbol><symbol id="icon-angle-right" viewBox="0 3 10 24"><path d="m14.019 17.062-8.5 8.5a1.493 1.493 0 0 1-2.119 0L1.987 24.15a1.495 1.495 0 0 1 0-2.119l6.025-6.025-6.025-6.025a1.495 1.495 0 0 1 0-2.119l1.406-1.425a1.493 1.493 0 0 1 2.119 0l8.5 8.5c.594.588.594 1.538.006 2.125z"/></symbol></defs></svg>