<svg aria-hidden="true" style="position: absolute; width: 0; height: 0; overflow: hidden;" version="1.1"
    xmlns="http://www.w3.org/2000/svg"
    xmlns:xlink="http://www.w3.org/1999/xlink">
    <defs>
        <symbol id="icon-close" viewBox="0 0 32 32">
            <path d="M17.253 16l7.369-7.369c0.146-0.17 0.222-0.389 0.213-0.613s-0.101-0.436-0.26-0.594c-0.158-0.158-0.37-0.251-0.594-0.26s-0.442 0.067-0.612 0.213l-7.369 7.369-7.369-7.378c-0.167-0.167-0.394-0.261-0.631-0.261s-0.464 0.094-0.631 0.261c-0.167 0.167-0.261 0.394-0.261 0.631s0.094 0.464 0.261 0.631l7.378 7.369-7.378 7.369c-0.093 0.080-0.169 0.178-0.222 0.288s-0.083 0.23-0.088 0.353c-0.005 0.123 0.016 0.245 0.061 0.359s0.112 0.218 0.199 0.304c0.087 0.087 0.19 0.154 0.304 0.199s0.236 0.065 0.359 0.060c0.122-0.005 0.243-0.035 0.353-0.088s0.208-0.129 0.288-0.222l7.378-7.369 7.369 7.369c0.17 0.146 0.389 0.222 0.612 0.213s0.436-0.101 0.594-0.26c0.158-0.158 0.251-0.37 0.26-0.594s-0.067-0.442-0.213-0.612l-7.369-7.369z"></path>
        </symbol>
        <symbol id="icon-bracket" viewBox="0 0 32 32">
            <path stroke-width="5.3333" stroke-miterlimit="4" stroke-linecap="round" stroke-linejoin="round" d="M10.667 5.333l13.2 10.667-13.2 10.667"></path>
        </symbol>
        <symbol id="icon-arrow" viewBox="0 0 82 32">
            <path d="M81.414 17.414c0.781-0.781 0.781-2.047 0-2.828l-12.728-12.728c-0.781-0.781-2.047-0.781-2.828 0s-0.781 2.047 0 2.828l11.314 11.314-11.314 11.314c-0.781 0.781-0.781 2.047 0 2.828s2.047 0.781 2.828 0l12.728-12.728zM0 18h80v-4h-80v4z"></path>
        </symbol>
        <symbol id="icon-pointer" viewBox="0 0 84 32">
            <path d="M82.643 17.191c0.781-0.781 0.781-2.047 0-2.828l-12.728-12.728c-0.781-0.781-2.047-0.781-2.828 0s-0.781 2.047 0 2.828l11.314 11.314-11.314 11.314c-0.781 0.781-0.781 2.047 0 2.829s2.047 0.781 2.828 0l12.728-12.728zM0.76 17.777h80.469v-4h-80.469v4z"></path>
        </symbol>
        <symbol id="icon-github" viewBox="0 0 31 32">
            <path fill="#f8d24e" style="fill: var(--color1, #f8d24e)" d="M31.030 16.43c0 8.571-6.946 15.519-15.515 15.519s-15.515-6.948-15.515-15.519c0-8.571 6.946-15.519 15.515-15.519s15.515 6.948 15.515 15.519z"></path>
            <path d="M15.515 7.301c-5.013 0-9.127 4.115-9.127 9.129 0 4.279 3.002 8.165 6.988 9.129v-3.020c-0.395 0.087-0.758 0.089-1.16-0.030-0.539-0.159-0.978-0.519-1.303-1.067-0.207-0.35-0.575-0.729-0.958-0.701l-0.094-1.066c0.829-0.071 1.546 0.505 1.972 1.221 0.189 0.318 0.407 0.505 0.686 0.587 0.27 0.079 0.56 0.041 0.898-0.078 0.085-0.677 0.395-0.93 0.629-1.286v-0c-2.377-0.355-3.325-1.616-3.701-2.612-0.498-1.322-0.231-2.974 0.65-4.017 0.017-0.020 0.048-0.074 0.036-0.111-0.404-1.221 0.088-2.23 0.106-2.338 0.466 0.138 0.542-0.139 2.025 0.763l0.256 0.154c0.107 0.064 0.073 0.027 0.181 0.019 0.619-0.168 1.272-0.261 1.915-0.269 0.648 0.008 1.297 0.101 1.942 0.276l0.083 0.008c-0.007-0.001 0.023-0.005 0.073-0.035 1.853-1.123 1.786-0.756 2.283-0.917 0.018 0.107 0.504 1.133 0.104 2.339-0.054 0.166 1.606 1.687 0.686 4.128-0.376 0.996-1.323 2.257-3.7 2.612v0c0.305 0.465 0.671 0.712 0.669 1.67v3.77c3.986-0.963 6.988-4.85 6.988-9.129 0-5.014-4.114-9.129-9.126-9.129v0z"></path>
        </symbol>
        <symbol id="icon-telegram" viewBox="0 0 32 32">
            <path fill="#f8d24e" style="fill: var(--color1, #f8d24e)" d="M31.259 16.43c0 8.571-6.946 15.519-15.515 15.519s-15.515-6.948-15.515-15.519c0-8.571 6.946-15.519 15.515-15.519s15.515 6.948 15.515 15.519z"></path>
            <path d="M12.705 18.734l-0.308 4.044c0.441 0 0.631-0.177 0.86-0.389l2.066-1.843 4.281 2.926c0.785 0.409 1.338 0.193 1.55-0.674l2.811-12.292c0.249-1.083-0.42-1.507-1.185-1.241l-16.516 5.903c-1.127 0.408-1.11 0.995-0.192 1.261l4.223 1.226 9.808-5.729c0.462-0.285 0.881-0.127 0.536 0.158l-7.934 6.65z"></path>
        </symbol>
        <symbol id="icon-facebook" viewBox="0 0 31 32">
            <path fill="#f8d24e" style="fill: var(--color1, #f8d24e)" d="M15.515 31.948c8.569 0 15.515-6.948 15.515-15.519s-6.946-15.519-15.515-15.519c-8.569 0-15.515 6.948-15.515 15.519s6.946 15.519 15.515 15.519z"></path>
            <path d="M19.826 16.412h-2.531v9.329h-3.835v-9.329h-1.824v-3.279h1.824v-2.122c0-1.517 0.716-3.893 3.869-3.893l2.841 0.012v3.183h-2.061c-0.338 0-0.813 0.17-0.813 0.894v1.93h2.866l-0.335 3.276z"></path>
        </symbol>
        <symbol id="icon-menu" viewBox="0 0 32 32">
            <path stroke-width="2" stroke-miterlimit="4" stroke-linecap="round" stroke-linejoin="miter" d="M6 10h20"></path>
            <path stroke-width="2" stroke-miterlimit="4" stroke-linecap="round" stroke-linejoin="miter" d="M6 16h20"></path>
            <path stroke-width="2" stroke-miterlimit="4" stroke-linecap="round" stroke-linejoin="miter" d="M6 22h20"></path>
        </symbol>
        <symbol id="icon-ep_close" viewBox="0 0 32 32">
            <path d="M23.884 6.706l-7.884 7.884-7.884-7.884c-0.19-0.174-0.439-0.267-0.696-0.261s-0.502 0.11-0.684 0.292c-0.182 0.182-0.286 0.427-0.292 0.684s0.088 0.506 0.261 0.696l7.88 7.884-7.882 7.882c-0.096 0.092-0.173 0.202-0.226 0.324s-0.081 0.253-0.083 0.386 0.023 0.265 0.073 0.388c0.050 0.123 0.124 0.235 0.218 0.329s0.206 0.169 0.329 0.219 0.255 0.075 0.388 0.074c0.133-0.002 0.264-0.029 0.386-0.082s0.232-0.13 0.324-0.226l7.886-7.882 7.884 7.884c0.19 0.174 0.439 0.267 0.696 0.262s0.502-0.11 0.684-0.292c0.182-0.182 0.286-0.427 0.292-0.684s-0.088-0.506-0.262-0.696l-7.884-7.884 7.884-7.886c0.096-0.092 0.173-0.202 0.226-0.324s0.081-0.253 0.083-0.386c0.002-0.133-0.023-0.265-0.073-0.388s-0.124-0.235-0.218-0.329c-0.094-0.094-0.206-0.169-0.329-0.219s-0.255-0.075-0.388-0.074-0.264 0.029-0.386 0.082c-0.122 0.053-0.232 0.13-0.324 0.226v0.002z"></path>
        </symbol>
        <symbol id="icon-scroll-to-top" viewBox="-1 -1 35 35">
            <path d="M14.422 0.296c-5.395 0.588-9.998 3.734-12.46 8.517-0.787 1.53-1.292 3.117-1.588 4.977-0.092 0.568-0.102 0.859-0.102 2.209 0 1.685 0.044 2.137 0.335 3.448 1.136 5.074 4.744 9.304 9.566 11.207 1.161 0.461 2.268 0.758 3.618 0.971 0.568 0.092 0.859 0.102 2.209 0.102 1.685 0 2.137-0.044 3.448-0.335 5.074-1.136 9.304-4.744 11.207-9.566 0.461-1.161 0.758-2.268 0.971-3.618 0.092-0.568 0.102-0.859 0.102-2.209 0-1.685-0.044-2.137-0.335-3.448-0.821-3.652-2.928-6.92-5.934-9.173-1.782-1.335-3.841-2.287-6.012-2.773-1.195-0.267-1.743-0.325-3.229-0.34-0.762-0.010-1.568 0.005-1.797 0.029zM17.704 1.53c3.292 0.393 6.245 1.826 8.59 4.176 2.394 2.389 3.792 5.312 4.205 8.789 0.073 0.626 0.073 2.384 0 3.011-0.413 3.477-1.811 6.4-4.205 8.789-1.831 1.835-4.098 3.147-6.531 3.783-1.326 0.35-2.37 0.481-3.763 0.481s-2.438-0.131-3.763-0.481c-3.355-0.879-6.385-3.049-8.342-5.982-1.345-2.010-2.093-4.079-2.394-6.589-0.073-0.626-0.073-2.384 0-3.011 0.413-3.477 1.811-6.4 4.205-8.789 2.583-2.588 5.88-4.050 9.615-4.268 0.5-0.029 1.772 0.019 2.384 0.092z"></path>
            <path d="M11.751 15.369l-4.249 4.249 0.427 0.422 0.422 0.427 7.648-7.648 7.648 7.648 0.422-0.427 0.427-0.422-8.498-8.498-4.249 4.249z"></path>
        </symbol>
        <symbol id="icon-frame-57" viewBox="0 0 82 32">
            <path fill="#fcfcfc" style="fill: var(--color1, #fcfcfc)" d="M81.414 17.414c0.781-0.781 0.781-2.047 0-2.828l-12.728-12.728c-0.781-0.781-2.047-0.781-2.828 0s-0.781 2.047 0 2.828l11.314 11.314-11.314 11.314c-0.781 0.781-0.781 2.047 0 2.828s2.047 0.781 2.828 0l12.728-12.728zM0 18h80v-4h-80v4z"></path>
        </symbol>
        <symbol id="icon-angle-right" viewBox="0 3 10 24">
            <path d="M14.019 17.062l-8.5 8.5c-0.588 0.588-1.538 0.588-2.119 0l-1.413-1.412c-0.587-0.588-0.587-1.538 0-2.119l6.025-6.025-6.025-6.025c-0.587-0.588-0.587-1.537 0-2.119l1.406-1.425c0.587-0.588 1.537-0.588 2.119 0l8.5 8.5c0.594 0.588 0.594 1.538 0.006 2.125z"></path>
        </symbol>
    </defs>
</svg>
